<mxfile host="app.diagrams.net" agent="Mozilla/5.0 (Windows NT 10.0; Win64; x64) AppleWebKit/537.36 (KHTML, like Gecko) Chrome/133.0.0.0 Safari/537.36" version="26.1.0">
  <diagram name="Pagina-1" id="BzIFSSc7Ik_XUe77S4dC">
    <mxGraphModel dx="1562" dy="845" grid="1" gridSize="10" guides="1" tooltips="1" connect="1" arrows="1" fold="1" page="1" pageScale="1" pageWidth="827" pageHeight="1169" math="0" shadow="0">
      <root>
        <mxCell id="0" />
        <mxCell id="1" parent="0" />
        <mxCell id="mn51X2vzUS20NFWBAz25-1" value="" style="rounded=0;whiteSpace=wrap;html=1;" vertex="1" parent="1">
          <mxGeometry x="50" y="85" width="740" height="500" as="geometry" />
        </mxCell>
        <mxCell id="mn51X2vzUS20NFWBAz25-2" value="HOMEPAGE" style="rounded=1;whiteSpace=wrap;html=1;" vertex="1" parent="1">
          <mxGeometry x="340" y="10" width="120" height="60" as="geometry" />
        </mxCell>
        <mxCell id="mn51X2vzUS20NFWBAz25-3" value="TITLE COMES HERE" style="text;html=1;align=center;verticalAlign=middle;whiteSpace=wrap;rounded=0;" vertex="1" parent="1">
          <mxGeometry x="210" y="110" width="360" height="70" as="geometry" />
        </mxCell>
        <mxCell id="mn51X2vzUS20NFWBAz25-4" value="love letter" style="shape=note;whiteSpace=wrap;html=1;backgroundOutline=1;darkOpacity=0.05;" vertex="1" parent="1">
          <mxGeometry x="130" y="240" width="80" height="100" as="geometry" />
        </mxCell>
        <mxCell id="mn51X2vzUS20NFWBAz25-5" value="Find a pair page" style="whiteSpace=wrap;html=1;aspect=fixed;" vertex="1" parent="1">
          <mxGeometry x="320" y="235" width="110" height="110" as="geometry" />
        </mxCell>
        <mxCell id="mn51X2vzUS20NFWBAz25-6" value="SONG PAGE" style="whiteSpace=wrap;html=1;aspect=fixed;" vertex="1" parent="1">
          <mxGeometry x="570" y="230" width="115" height="115" as="geometry" />
        </mxCell>
        <mxCell id="mn51X2vzUS20NFWBAz25-7" value="button" style="rounded=1;whiteSpace=wrap;html=1;" vertex="1" parent="1">
          <mxGeometry x="130" y="350" width="80" height="20" as="geometry" />
        </mxCell>
        <mxCell id="mn51X2vzUS20NFWBAz25-8" value="button" style="rounded=1;whiteSpace=wrap;html=1;" vertex="1" parent="1">
          <mxGeometry x="587.5" y="350" width="80" height="20" as="geometry" />
        </mxCell>
        <mxCell id="mn51X2vzUS20NFWBAz25-9" value="button" style="rounded=1;whiteSpace=wrap;html=1;" vertex="1" parent="1">
          <mxGeometry x="335" y="350" width="80" height="20" as="geometry" />
        </mxCell>
      </root>
    </mxGraphModel>
  </diagram>
</mxfile>
